<svg xmlns="http://www.w3.org/2000/svg" viewBox="0 0 512 512" role="img" aria-labelledby="title desc">
  <title id="title">Ownkey app icon</title>
  <desc id="desc">A dark keycap tile containing the Ownkey monkey waveform mark.</desc>
  <defs>
    <linearGradient id="tile" x1="88" y1="28" x2="424" y2="484" gradientUnits="userSpaceOnUse">
      <stop offset="0" stop-color="#2b2c2f"/>
      <stop offset=".48" stop-color="#18191b"/>
      <stop offset="1" stop-color="#0a0b0c"/>
    </linearGradient>
    <radialGradient id="top-light" cx="50%" cy="18%" r="75%">
      <stop offset="0" stop-color="#ffffff" stop-opacity=".18"/>
      <stop offset=".35" stop-color="#ffffff" stop-opacity=".04"/>
      <stop offset="1" stop-color="#ffffff" stop-opacity="0"/>
    </radialGradient>
    <filter id="soft-shadow" x="-20%" y="-20%" width="140%" height="150%">
      <feDropShadow dx="0" dy="22" stdDeviation="18" flood-color="#000000" flood-opacity=".45"/>
    </filter>
  </defs>
  <rect x="62" y="62" width="388" height="388" rx="76" fill="url(#tile)" filter="url(#soft-shadow)"/>
  <rect x="78" y="76" width="356" height="338" rx="62" fill="url(#top-light)"/>
  <g transform="translate(91 133) scale(.506)">
    <g fill="#f3f1ec">
      <path d="M60 98C25 111 0 151 0 193c0 55 39 97 90 102v-37c-31-6-51-31-51-64 0-24 8-43 21-55V98Z"/>
      <path d="M592 98c35 13 60 53 60 95 0 55-39 97-90 102v-37c31-6 51-31 51-64 0-24-8-43-21-55V98Z"/>
      <path d="M326 42C294 12 258-3 216 1 146 8 94 80 94 166c0 45 24 78 52 98 9 6 18 11 28 15-9 39-10 86 0 126 13 51 52 81 111 81h82c59 0 98-30 111-81 10-40 9-87 0-126 10-4 19-9 28-15 28-20 52-53 52-98C558 80 506 8 436 1c-42-4-78 11-110 41Z"/>
    </g>
    <g fill="#1c1c1c">
      <circle cx="221.5" cy="154.5" r="38"/>
      <circle cx="431" cy="154.5" r="38.25"/>
    </g>
    <g fill="#de5f14">
      <rect x="216" y="323" width="27" height="70" rx="13"/>
      <rect x="265" y="287" width="27" height="139" rx="13"/>
      <rect x="312" y="248" width="28" height="212" rx="13"/>
      <rect x="360" y="288" width="27" height="136" rx="13"/>
      <rect x="409" y="323" width="28" height="70" rx="13"/>
    </g>
  </g>
</svg>
