<svg xmlns="http://www.w3.org/2000/svg" viewBox="0 0 652 486" role="img" aria-labelledby="title desc">
  <title id="title">Monkey waveform icon</title>
  <desc id="desc">Standalone monkey icon traced from the reference, without the background keycap.</desc>
  <g id="monkey-waveform-icon">
    <g id="ears" fill="#f3f1ec">
      <path d="M60 98C25 111 0 151 0 193c0 55 39 97 90 102v-37c-31-6-51-31-51-64 0-24 8-43 21-55V98Z"/>
      <path d="M592 98c35 13 60 53 60 95 0 55-39 97-90 102v-37c31-6 51-31 51-64 0-24-8-43-21-55V98Z"/>
    </g>
    <path id="face" fill="#f3f1ec" d="M326 42C294 12 258-3 216 1 146 8 94 80 94 166c0 45 24 78 52 98 9 6 18 11 28 15-9 39-10 86 0 126 13 51 52 81 111 81h82c59 0 98-30 111-81 10-40 9-87 0-126 10-4 19-9 28-15 28-20 52-53 52-98C558 80 506 8 436 1c-42-4-78 11-110 41Z"/>
    <g id="eyes" fill="#1c1c1c">
      <circle cx="221.5" cy="154.5" r="38"/>
      <circle cx="431" cy="154.5" r="38.25"/>
    </g>
    <g id="waveform-mouth" fill="#de5f14">
      <rect x="216" y="323" width="27" height="70" rx="13"/>
      <rect x="265" y="287" width="27" height="139" rx="13"/>
      <rect x="312" y="248" width="28" height="212" rx="13"/>
      <rect x="360" y="288" width="27" height="136" rx="13"/>
      <rect x="409" y="323" width="28" height="70" rx="13"/>
    </g>
  </g>
</svg>
